<mxfile host="app.diagrams.net" modified="2023-06-07T09:21:53.798Z" agent="Mozilla/5.0 (Macintosh; Intel Mac OS X 10.15; rv:109.0) Gecko/20100101 Firefox/113.0" etag="cD5GHHeITjxzx76S4DzP" version="21.3.7" type="google">
  <diagram name="PÃ¡gina-1" id="nRX4eW31pLpcMuwV6m34">
    <mxGraphModel grid="1" page="1" gridSize="10" guides="1" tooltips="1" connect="1" arrows="1" fold="1" pageScale="1" pageWidth="1169" pageHeight="827" math="0" shadow="0">
      <root>
        <mxCell id="0" />
        <mxCell id="1" parent="0" />
        <mxCell id="Jp-LJL9DLWFaeXL6_sSn-116" value="" style="rounded=0;whiteSpace=wrap;html=1;labelPosition=left;verticalLabelPosition=top;align=right;verticalAlign=bottom;fillColor=#d5e8d4;strokeColor=#00bf63;strokeWidth=2;dashed=1;" vertex="1" parent="1">
          <mxGeometry x="770" y="697.63" width="670" height="432.37" as="geometry" />
        </mxCell>
        <mxCell id="Jp-LJL9DLWFaeXL6_sSn-117" value="&lt;font style=&quot;font-size: 14px;&quot;&gt;&lt;b&gt;H2Ohm - CEO&lt;/b&gt;&lt;/font&gt;" style="text;html=1;strokeColor=none;fillColor=none;align=left;verticalAlign=bottom;whiteSpace=wrap;rounded=0;fontColor=#00bf63;" vertex="1" parent="1">
          <mxGeometry x="770" y="670" width="100.83333333333333" height="27.63157894736842" as="geometry" />
        </mxCell>
        <mxCell id="Jp-LJL9DLWFaeXL6_sSn-118" value="R&amp;amp;D - CTO" style="text;html=1;strokeColor=none;fillColor=none;align=left;verticalAlign=bottom;whiteSpace=wrap;rounded=0;fontColor=#007FFF;fontStyle=1" vertex="1" parent="1">
          <mxGeometry x="790.0033333333333" y="719.63" width="73.33333333333333" height="21.571740400000003" as="geometry" />
        </mxCell>
        <mxCell id="Jp-LJL9DLWFaeXL6_sSn-119" value="Finances" style="rounded=1;whiteSpace=wrap;html=1;" vertex="1" parent="1">
          <mxGeometry x="1300.0033333333333" y="860.5333333333334" width="110" height="46.66666666666667" as="geometry" />
        </mxCell>
        <mxCell id="Jp-LJL9DLWFaeXL6_sSn-120" value="Inst. Sales" style="rounded=1;whiteSpace=wrap;html=1;" vertex="1" parent="1">
          <mxGeometry x="1300.0066666666667" y="920.4300000000001" width="110" height="46.66666666666667" as="geometry" />
        </mxCell>
        <mxCell id="Jp-LJL9DLWFaeXL6_sSn-121" value="" style="rounded=0;whiteSpace=wrap;html=1;labelPosition=left;verticalLabelPosition=top;align=right;verticalAlign=bottom;fillColor=#dae8fc;strokeColor=#007FFF;dashed=1;strokeWidth=2;container=0;" vertex="1" parent="1">
          <mxGeometry x="790" y="742.05" width="140" height="367.95" as="geometry" />
        </mxCell>
        <mxCell id="Jp-LJL9DLWFaeXL6_sSn-122" value="New Blocks design" style="rounded=1;whiteSpace=wrap;html=1;container=0;" vertex="1" parent="1">
          <mxGeometry x="805" y="757.05" width="110" height="40" as="geometry" />
        </mxCell>
        <mxCell id="Jp-LJL9DLWFaeXL6_sSn-123" value="New Kits design" style="rounded=1;whiteSpace=wrap;html=1;container=0;" vertex="1" parent="1">
          <mxGeometry x="805" y="807.05" width="110" height="40" as="geometry" />
        </mxCell>
        <mxCell id="Jp-LJL9DLWFaeXL6_sSn-124" value="Prototyping" style="rounded=1;whiteSpace=wrap;html=1;container=0;" vertex="1" parent="1">
          <mxGeometry x="805" y="857.05" width="110" height="40" as="geometry" />
        </mxCell>
        <mxCell id="Jp-LJL9DLWFaeXL6_sSn-125" value="Industrialization" style="rounded=1;whiteSpace=wrap;html=1;container=0;" vertex="1" parent="1">
          <mxGeometry x="805" y="907.05" width="110" height="40" as="geometry" />
        </mxCell>
        <mxCell id="Jp-LJL9DLWFaeXL6_sSn-126" value="Quality" style="rounded=1;whiteSpace=wrap;html=1;container=0;" vertex="1" parent="1">
          <mxGeometry x="805" y="957.87" width="110" height="40" as="geometry" />
        </mxCell>
        <mxCell id="Jp-LJL9DLWFaeXL6_sSn-127" value="&lt;div&gt;Marketing&lt;/div&gt;" style="text;html=1;strokeColor=none;fillColor=none;align=left;verticalAlign=bottom;whiteSpace=wrap;rounded=0;fontColor=#007FFF;fontStyle=1" vertex="1" parent="1">
          <mxGeometry x="960" y="718.92" width="120" height="21.57" as="geometry" />
        </mxCell>
        <mxCell id="Jp-LJL9DLWFaeXL6_sSn-128" value="" style="rounded=0;whiteSpace=wrap;html=1;labelPosition=left;verticalLabelPosition=top;align=right;verticalAlign=bottom;fillColor=#dae8fc;strokeColor=#007FFF;dashed=1;strokeWidth=2;container=0;" vertex="1" parent="1">
          <mxGeometry x="960" y="741.34" width="140" height="318.66" as="geometry" />
        </mxCell>
        <mxCell id="Jp-LJL9DLWFaeXL6_sSn-129" value="Identity" style="rounded=1;whiteSpace=wrap;html=1;container=0;" vertex="1" parent="1">
          <mxGeometry x="975" y="756.34" width="110" height="40" as="geometry" />
        </mxCell>
        <mxCell id="Jp-LJL9DLWFaeXL6_sSn-130" value="Website" style="rounded=1;whiteSpace=wrap;html=1;container=0;" vertex="1" parent="1">
          <mxGeometry x="975" y="806.34" width="110" height="40" as="geometry" />
        </mxCell>
        <mxCell id="Jp-LJL9DLWFaeXL6_sSn-131" value="Advertising" style="rounded=1;whiteSpace=wrap;html=1;container=0;" vertex="1" parent="1">
          <mxGeometry x="975" y="856.34" width="110" height="40" as="geometry" />
        </mxCell>
        <mxCell id="Jp-LJL9DLWFaeXL6_sSn-132" value="Events" style="rounded=1;whiteSpace=wrap;html=1;container=0;" vertex="1" parent="1">
          <mxGeometry x="975" y="906.34" width="110" height="40" as="geometry" />
        </mxCell>
        <mxCell id="Jp-LJL9DLWFaeXL6_sSn-133" value="" style="shape=actor;whiteSpace=wrap;html=1;fillColor=#FFCE9F;strokeColor=#FF8000;" vertex="1" parent="1">
          <mxGeometry x="845" y="1010" width="30" height="40" as="geometry" />
        </mxCell>
        <mxCell id="Jp-LJL9DLWFaeXL6_sSn-134" value="" style="shape=actor;whiteSpace=wrap;html=1;fillColor=#FFCE9F;strokeColor=#FF8000;" vertex="1" parent="1">
          <mxGeometry x="805" y="1010" width="30" height="40" as="geometry" />
        </mxCell>
        <mxCell id="Jp-LJL9DLWFaeXL6_sSn-135" value="" style="shape=actor;whiteSpace=wrap;html=1;fillColor=#B9E0A5;strokeColor=#66CC00;" vertex="1" parent="1">
          <mxGeometry x="885" y="1010" width="30" height="40" as="geometry" />
        </mxCell>
        <mxCell id="Jp-LJL9DLWFaeXL6_sSn-136" value="" style="shape=actor;whiteSpace=wrap;html=1;fillColor=#B9E0A5;strokeColor=#66CC00;" vertex="1" parent="1">
          <mxGeometry x="975" y="1010" width="30" height="40" as="geometry" />
        </mxCell>
        <mxCell id="Jp-LJL9DLWFaeXL6_sSn-137" value="" style="shape=actor;whiteSpace=wrap;html=1;fillColor=#B9E0A5;strokeColor=#66CC00;" vertex="1" parent="1">
          <mxGeometry x="845" y="1060" width="30" height="40" as="geometry" />
        </mxCell>
        <mxCell id="Jp-LJL9DLWFaeXL6_sSn-138" value="Sales - COO" style="text;html=1;strokeColor=none;fillColor=none;align=left;verticalAlign=bottom;whiteSpace=wrap;rounded=0;fontColor=#007FFF;fontStyle=1" vertex="1" parent="1">
          <mxGeometry x="1130" y="719.63" width="120" height="21.57" as="geometry" />
        </mxCell>
        <mxCell id="Jp-LJL9DLWFaeXL6_sSn-139" value="" style="rounded=0;whiteSpace=wrap;html=1;labelPosition=left;verticalLabelPosition=top;align=right;verticalAlign=bottom;fillColor=#dae8fc;strokeColor=#007FFF;dashed=1;strokeWidth=2;container=0;" vertex="1" parent="1">
          <mxGeometry x="1130" y="742.05" width="140" height="267.95" as="geometry" />
        </mxCell>
        <mxCell id="Jp-LJL9DLWFaeXL6_sSn-140" value="Sales" style="rounded=1;whiteSpace=wrap;html=1;container=0;" vertex="1" parent="1">
          <mxGeometry x="1145" y="757.0500000000001" width="110" height="40" as="geometry" />
        </mxCell>
        <mxCell id="Jp-LJL9DLWFaeXL6_sSn-141" value="Logistics" style="rounded=1;whiteSpace=wrap;html=1;container=0;" vertex="1" parent="1">
          <mxGeometry x="1145" y="807.05" width="110" height="40" as="geometry" />
        </mxCell>
        <mxCell id="Jp-LJL9DLWFaeXL6_sSn-142" value="Costumer Service" style="rounded=1;whiteSpace=wrap;html=1;container=0;" vertex="1" parent="1">
          <mxGeometry x="1145" y="857.05" width="110" height="40" as="geometry" />
        </mxCell>
        <mxCell id="Jp-LJL9DLWFaeXL6_sSn-147" value="" style="shape=actor;whiteSpace=wrap;html=1;fillColor=#B9E0A5;strokeColor=#66CC00;" vertex="1" parent="1">
          <mxGeometry x="1340" y="980" width="30" height="40" as="geometry" />
        </mxCell>
        <mxCell id="Jp-LJL9DLWFaeXL6_sSn-149" value="" style="shape=actor;whiteSpace=wrap;html=1;fillColor=#B9E0A5;strokeColor=#66CC00;" vertex="1" parent="1">
          <mxGeometry x="1185" y="907.2" width="30" height="40" as="geometry" />
        </mxCell>
        <mxCell id="Jp-LJL9DLWFaeXL6_sSn-150" value="" style="shape=actor;whiteSpace=wrap;html=1;fillColor=#B9E0A5;strokeColor=#66CC00;" vertex="1" parent="1">
          <mxGeometry x="1225" y="907.2" width="30" height="40" as="geometry" />
        </mxCell>
        <mxCell id="Jp-LJL9DLWFaeXL6_sSn-151" value="" style="shape=actor;whiteSpace=wrap;html=1;fillColor=#B9E0A5;strokeColor=#66CC00;" vertex="1" parent="1">
          <mxGeometry x="1145" y="907.2" width="30" height="40" as="geometry" />
        </mxCell>
        <mxCell id="Jp-LJL9DLWFaeXL6_sSn-152" value="" style="shape=actor;whiteSpace=wrap;html=1;fillColor=#B9E0A5;strokeColor=#66CC00;" vertex="1" parent="1">
          <mxGeometry x="1165" y="957.87" width="30" height="40" as="geometry" />
        </mxCell>
        <mxCell id="Jp-LJL9DLWFaeXL6_sSn-153" value="" style="shape=actor;whiteSpace=wrap;html=1;fillColor=#B9E0A5;strokeColor=#66CC00;" vertex="1" parent="1">
          <mxGeometry x="1205" y="957.87" width="30" height="40" as="geometry" />
        </mxCell>
        <mxCell id="Jp-LJL9DLWFaeXL6_sSn-154" value="" style="shape=actor;whiteSpace=wrap;html=1;fillColor=#B9E0A5;strokeColor=#66CC00;" vertex="1" parent="1">
          <mxGeometry x="1015" y="1010" width="30" height="40" as="geometry" />
        </mxCell>
        <mxCell id="P9KgWaK9FDCSTlFJN-op-1" value="" style="shape=actor;whiteSpace=wrap;html=1;fillColor=#B9E0A5;strokeColor=#66CC00;" vertex="1" parent="1">
          <mxGeometry x="885" y="1060" width="30" height="40" as="geometry" />
        </mxCell>
        <mxCell id="P9KgWaK9FDCSTlFJN-op-2" value="" style="shape=actor;whiteSpace=wrap;html=1;fillColor=#B9E0A5;strokeColor=#66CC00;" vertex="1" parent="1">
          <mxGeometry x="805" y="1060" width="30" height="40" as="geometry" />
        </mxCell>
        <mxCell id="P9KgWaK9FDCSTlFJN-op-4" value="" style="shape=actor;whiteSpace=wrap;html=1;fillColor=#B9E0A5;strokeColor=#66CC00;" vertex="1" parent="1">
          <mxGeometry x="1055" y="1010" width="30" height="40" as="geometry" />
        </mxCell>
        <mxCell id="waCBS2-YxI_SfLFz0vPD-3" value="New Kits" style="rounded=1;whiteSpace=wrap;html=1;container=0;" vertex="1" parent="1">
          <mxGeometry x="975" y="957.87" width="110" height="40" as="geometry" />
        </mxCell>
      </root>
    </mxGraphModel>
  </diagram>
</mxfile>
